# xmcd CD database file
#
# Track frame offsets:
#	150
#	35550
#	51976
#	83337
#	127979
#	158462
#	184012
#	211005
#	246671
#	269882
#	284537
#	286456
#
# Disc length: 4088 seconds
#
# Revision: 0
# Processed by: cddbd v1.5.2PL0 Copyright (c) Steve Scherf et al.
# Submitted via: CDex 1.51
#
DISCID=b00ff60c
DTITLE=Jon Robles - I remember Leonard
DYEAR=2005
DGENRE=Jazz
TTITLE0=Commercar de Novo
TTITLE1=Alone Together
TTITLE2=Triste
TTITLE3=En blanco
TTITLE4=My One and Only Love
TTITLE5=Treneology
TTITLE6=Skylark
TTITLE7=Giant Steps
TTITLE8=Jontxu
TTITLE9=Falling Grace
TTITLE10=Sketch
TTITLE11=I remember Leonard
EXTD=YEAR: 2005
EXTT0=
EXTT1=
EXTT2=
EXTT3=
EXTT4=
EXTT5=
EXTT6=
EXTT7=
EXTT8=
EXTT9=
EXTT10=
EXTT11=
PLAYORDER=
